# xmcd
#
# Track frame offsets: 
#        150
#        84917
#        155442
#
# Disc length: 2986 seconds
#
# Revision: 0
# Processed by: cddbd v1.5.1PL2 Copyright (c) Steve Scherf et al.
# Submitted via: ExactAudioCopy v0.95a5
#
DISCID=140ba803
DTITLE=³¯¬Â¥É - ¦A§éªø«F¬h
DYEAR=2006
DGENRE=Blues
TTITLE0=¦A§éªø«F¬h
TTITLE1=»îÂ_ÂÅ¾ô
TTITLE2=¼ñ¶§©]¤ëÅ¥µ\\µ]
EXTD=
EXTT0=
EXTT1=
EXTT2=
PLAYORDER=
